<mxfile host="app.diagrams.net" modified="2023-11-12T06:35:21.746Z" agent="Mozilla/5.0 (Windows NT 10.0; Win64; x64) AppleWebKit/537.36 (KHTML, like Gecko) Chrome/118.0.0.0 Safari/537.36" etag="cDxnBeQxY3gwhxYbv1-j" version="21.7.5" type="github">
  <diagram name="Page-1" id="GoQh4Jn4SZapPQWumciH">
    <mxGraphModel dx="1566" dy="798" grid="1" gridSize="10" guides="1" tooltips="1" connect="1" arrows="1" fold="1" page="1" pageScale="1" pageWidth="827" pageHeight="1169" math="0" shadow="0">
      <root>
        <mxCell id="0" />
        <mxCell id="1" parent="0" />
        <mxCell id="neCtC8h_1FU_e-2Af9mW-1" value="&lt;font style=&quot;font-size: 14px;&quot;&gt;指示提单验证业务流程图&lt;/font&gt;" style="swimlane;html=1;childLayout=stackLayout;startSize=20;rounded=0;shadow=0;labelBackgroundColor=none;strokeWidth=1;fontFamily=Verdana;fontSize=8;align=center;" vertex="1" parent="1">
          <mxGeometry x="119" y="50" width="420" height="390" as="geometry" />
        </mxCell>
        <mxCell id="neCtC8h_1FU_e-2Af9mW-2" value="客户服务部" style="swimlane;html=1;startSize=20;" vertex="1" parent="neCtC8h_1FU_e-2Af9mW-1">
          <mxGeometry y="20" width="140" height="370" as="geometry" />
        </mxCell>
        <mxCell id="neCtC8h_1FU_e-2Af9mW-48" style="edgeStyle=orthogonalEdgeStyle;rounded=0;orthogonalLoop=1;jettySize=auto;html=1;exitX=0.5;exitY=1;exitDx=0;exitDy=0;" edge="1" parent="neCtC8h_1FU_e-2Af9mW-2" source="neCtC8h_1FU_e-2Af9mW-4" target="neCtC8h_1FU_e-2Af9mW-25">
          <mxGeometry relative="1" as="geometry" />
        </mxCell>
        <mxCell id="neCtC8h_1FU_e-2Af9mW-4" value="处理客户提单验证请求" style="rounded=1;whiteSpace=wrap;html=1;" vertex="1" parent="neCtC8h_1FU_e-2Af9mW-2">
          <mxGeometry x="20" y="40" width="100" height="50" as="geometry" />
        </mxCell>
        <mxCell id="neCtC8h_1FU_e-2Af9mW-57" style="edgeStyle=orthogonalEdgeStyle;rounded=0;orthogonalLoop=1;jettySize=auto;html=1;exitX=0.5;exitY=1;exitDx=0;exitDy=0;entryX=0.5;entryY=0;entryDx=0;entryDy=0;" edge="1" parent="neCtC8h_1FU_e-2Af9mW-2" source="neCtC8h_1FU_e-2Af9mW-19" target="neCtC8h_1FU_e-2Af9mW-22">
          <mxGeometry relative="1" as="geometry" />
        </mxCell>
        <mxCell id="neCtC8h_1FU_e-2Af9mW-19" value="授权客户验证提单" style="rounded=1;whiteSpace=wrap;html=1;" vertex="1" parent="neCtC8h_1FU_e-2Af9mW-2">
          <mxGeometry x="20" y="210" width="100" height="50" as="geometry" />
        </mxCell>
        <mxCell id="neCtC8h_1FU_e-2Af9mW-22" value="结束" style="rounded=1;whiteSpace=wrap;html=1;" vertex="1" parent="neCtC8h_1FU_e-2Af9mW-2">
          <mxGeometry x="20" y="300" width="100" height="50" as="geometry" />
        </mxCell>
        <mxCell id="neCtC8h_1FU_e-2Af9mW-25" value="核查客户权限" style="rounded=1;whiteSpace=wrap;html=1;" vertex="1" parent="neCtC8h_1FU_e-2Af9mW-2">
          <mxGeometry x="20" y="120" width="100" height="50" as="geometry" />
        </mxCell>
        <mxCell id="neCtC8h_1FU_e-2Af9mW-31" value="出口文档部经理" style="swimlane;html=1;startSize=20;" vertex="1" parent="neCtC8h_1FU_e-2Af9mW-1">
          <mxGeometry x="140" y="20" width="140" height="370" as="geometry" />
        </mxCell>
        <mxCell id="neCtC8h_1FU_e-2Af9mW-15" value="检查相关数据" style="rounded=1;whiteSpace=wrap;html=1;" vertex="1" parent="neCtC8h_1FU_e-2Af9mW-31">
          <mxGeometry x="25" y="120" width="100" height="50" as="geometry" />
        </mxCell>
        <mxCell id="neCtC8h_1FU_e-2Af9mW-49" style="edgeStyle=orthogonalEdgeStyle;rounded=0;orthogonalLoop=1;jettySize=auto;html=1;exitX=1;exitY=0.5;exitDx=0;exitDy=0;entryX=0;entryY=0.5;entryDx=0;entryDy=0;" edge="1" parent="neCtC8h_1FU_e-2Af9mW-1" source="neCtC8h_1FU_e-2Af9mW-25" target="neCtC8h_1FU_e-2Af9mW-15">
          <mxGeometry relative="1" as="geometry" />
        </mxCell>
        <mxCell id="neCtC8h_1FU_e-2Af9mW-50" value="出口文档部" style="swimlane;html=1;startSize=20;" vertex="1" parent="neCtC8h_1FU_e-2Af9mW-1">
          <mxGeometry x="280" y="20" width="140" height="370" as="geometry" />
        </mxCell>
        <mxCell id="neCtC8h_1FU_e-2Af9mW-17" value="更新提单数据" style="rounded=1;whiteSpace=wrap;html=1;" vertex="1" parent="neCtC8h_1FU_e-2Af9mW-50">
          <mxGeometry x="20" y="120" width="100" height="50" as="geometry" />
        </mxCell>
        <mxCell id="neCtC8h_1FU_e-2Af9mW-55" style="edgeStyle=orthogonalEdgeStyle;rounded=0;orthogonalLoop=1;jettySize=auto;html=1;entryX=0;entryY=0.5;entryDx=0;entryDy=0;" edge="1" parent="neCtC8h_1FU_e-2Af9mW-1" source="neCtC8h_1FU_e-2Af9mW-15" target="neCtC8h_1FU_e-2Af9mW-17">
          <mxGeometry relative="1" as="geometry" />
        </mxCell>
        <mxCell id="neCtC8h_1FU_e-2Af9mW-56" style="edgeStyle=orthogonalEdgeStyle;rounded=0;orthogonalLoop=1;jettySize=auto;html=1;exitX=0.5;exitY=1;exitDx=0;exitDy=0;entryX=1;entryY=0.5;entryDx=0;entryDy=0;" edge="1" parent="neCtC8h_1FU_e-2Af9mW-1" source="neCtC8h_1FU_e-2Af9mW-17" target="neCtC8h_1FU_e-2Af9mW-19">
          <mxGeometry relative="1" as="geometry" />
        </mxCell>
      </root>
    </mxGraphModel>
  </diagram>
</mxfile>
